<?xml version="1.0" encoding="utf-8"?>
<!-- Generator: Adobe Illustrator 19.1.0, SVG Export Plug-In . SVG Version: 6.00 Build 0)  -->
<svg version="1.1" id="Layer_1" xmlns="http://www.w3.org/2000/svg" xmlns:xlink="http://www.w3.org/1999/xlink" x="0px" y="0px"
	 viewBox="0 0 480 480" style="enable-background:new 0 0 480 480;" xml:space="preserve">
<style type="text/css">
	.st0{fill:#1C758A;}
	.st1{opacity:0.2;fill:#C42420;stroke:#C42420;stroke-width:3;stroke-miterlimit:10;}
	.st2{fill:none;stroke:#C42420;stroke-width:3;stroke-miterlimit:10;}
	.st3{fill:#C42420;}
	.st4{fill:#085566;}
	.st5{fill:#888D93;}
	.st6{fill:none;stroke:#888D93;stroke-width:3;stroke-miterlimit:10;}
	.st7{fill:none;stroke:#639B24;stroke-width:3;stroke-miterlimit:10;}
	.st8{fill:none;stroke:#CEAB19;stroke-width:3;stroke-miterlimit:10;}
	.st9{fill:#CEAB19;}
	.st10{fill:#639B24;}
	.st11{fill:none;stroke:#639B24;stroke-miterlimit:10;}
	.st12{fill:none;stroke:#0C7F99;stroke-miterlimit:10;}
	.st13{fill:none;stroke:#000000;stroke-width:2;stroke-miterlimit:10;}
	.st14{fill:#F6F7F7;}
	.st15{fill:none;stroke:#C42420;stroke-miterlimit:10;}
</style>
<polygon class="st0" points="10.2,477.7 16.2,473.4 10.3,470.4 "/>
<polyline class="st0" points="18.4,463.7 13.9,472.3 12.6,471.6 17,463 "/>
<polygon class="st0" points="36.4,477.7 42.4,473.4 36.6,470.4 "/>
<polyline class="st0" points="44.6,463.7 40.2,472.3 38.8,471.6 43.3,463 "/>
<polygon class="st0" points="62.9,477.9 68.8,473.5 62.9,470.5 "/>
<polyline class="st0" points="70.9,463.7 66.6,472.3 65.2,471.7 69.5,463 "/>
<polygon class="st0" points="89.6,478.1 95.4,473.5 89.4,470.7 "/>
<polyline class="st0" points="97.1,463.7 93.1,472.4 91.7,471.8 95.8,463.1 "/>
<polygon class="st0" points="116.4,478.3 122,473.5 115.9,471 "/>
<polyline class="st0" points="123.4,463.7 119.7,472.6 118.3,472 122,463.1 "/>
<polygon class="st0" points="143.2,478.5 148.6,473.6 142.5,471.3 "/>
<polyline class="st0" points="149.6,463.6 146.2,472.7 144.8,472.1 148.2,463.1 "/>
<polygon class="st0" points="170,478.7 175.2,473.6 169,471.5 "/>
<polyline class="st0" points="175.9,463.6 172.8,472.7 171.4,472.3 174.4,463.1 "/>
<polygon class="st0" points="196.6,478.8 201.7,473.6 195.4,471.6 "/>
<polyline class="st0" points="202.1,463.6 199.3,472.8 197.8,472.4 200.7,463.1 "/>
<polygon class="st0" points="223.1,478.9 228.1,473.5 221.8,471.7 "/>
<polyline class="st0" points="228.4,463.6 225.7,472.8 224.2,472.4 226.9,463.2 "/>
<polygon class="st0" points="249.5,479 254.5,473.5 248.1,471.8 "/>
<polyline class="st0" points="254.6,463.6 252,472.9 250.6,472.5 253.2,463.2 "/>
<polygon class="st0" points="275.9,479 280.7,473.5 274.4,471.8 "/>
<polyline class="st0" points="280.9,463.6 278.3,472.9 276.9,472.5 279.4,463.2 "/>
<polygon class="st0" points="302.1,479 307,473.5 300.6,471.8 "/>
<polyline class="st0" points="307.1,463.6 304.5,472.9 303.1,472.5 305.6,463.2 "/>
<polygon class="st0" points="328.2,479 333.1,473.5 326.8,471.7 "/>
<polyline class="st0" points="333.3,463.6 330.7,472.9 329.2,472.4 331.9,463.2 "/>
<polygon class="st0" points="354.2,478.9 359.2,473.6 352.9,471.7 "/>
<polyline class="st0" points="359.6,463.6 356.8,472.8 355.3,472.4 358.1,463.2 "/>
<polygon class="st0" points="380.1,478.8 385.2,473.6 379,471.5 "/>
<polyline class="st0" points="385.8,463.6 382.8,472.8 381.4,472.3 384.4,463.1 "/>
<polygon class="st0" points="405.8,478.6 411.2,473.6 405,471.3 "/>
<polyline class="st0" points="412,463.6 408.8,472.7 407.4,472.2 410.6,463.1 "/>
<polygon class="st0" points="431.6,478.4 437,473.5 430.9,471.1 "/>
<polyline class="st0" points="438.3,463.7 434.7,472.6 433.3,472 436.9,463.1 "/>
<polygon class="st0" points="457.2,478.2 462.9,473.5 456.9,470.8 "/>
<polyline class="st0" points="464.5,463.7 460.6,472.5 459.2,471.9 463.1,463.1 "/>
<polygon class="st0" points="9.5,451.1 15.6,447.1 10,443.8 "/>
<polyline class="st0" points="18.4,437.5 13.5,445.8 12.2,445 17.1,436.7 "/>
<polygon class="st0" points="35.7,451.1 41.8,447.1 36.2,443.7 "/>
<polyline class="st0" points="44.6,437.5 39.7,445.8 38.4,445 43.3,436.7 "/>
<polygon class="st0" points="62.2,451.2 68.3,447.1 62.6,443.9 "/>
<polyline class="st0" points="70.9,437.5 66.1,445.9 64.8,445.2 69.5,436.8 "/>
<polygon class="st0" points="89,451.5 95,447.2 89.1,444.2 "/>
<polyline class="st0" points="97.1,437.5 92.7,446.1 91.4,445.4 95.8,436.8 "/>
<polygon class="st0" points="116,451.9 121.7,447.3 115.7,444.5 "/>
<polyline class="st0" points="123.4,437.4 119.4,446.2 118,445.6 122,436.8 "/>
<polygon class="st0" points="142.9,452.2 148.4,447.3 142.3,444.9 "/>
<polyline class="st0" points="149.6,437.4 146,446.4 144.6,445.8 148.2,436.8 "/>
<polygon class="st0" points="169.7,452.4 175,447.3 168.8,445.1 "/>
<polyline class="st0" points="175.9,437.4 172.6,446.5 171.2,446 174.5,436.9 "/>
<polygon class="st0" points="196.4,452.5 201.5,447.3 195.3,445.3 "/>
<polyline class="st0" points="202.1,437.4 199.1,446.5 197.7,446.1 200.7,436.9 "/>
<polygon class="st0" points="223,452.6 228,447.3 221.7,445.4 "/>
<polyline class="st0" points="228.4,437.3 225.6,446.6 224.1,446.1 226.9,436.9 "/>
<polygon class="st0" points="249.4,452.7 254.4,447.3 248.1,445.5 "/>
<polyline class="st0" points="254.6,437.3 251.9,446.6 250.5,446.2 253.2,436.9 "/>
<polygon class="st0" points="275.7,452.7 280.7,447.3 274.3,445.5 "/>
<polyline class="st0" points="280.9,437.3 278.2,446.6 276.8,446.2 279.4,436.9 "/>
<polygon class="st0" points="301.9,452.7 306.9,447.3 300.6,445.5 "/>
<polyline class="st0" points="307.1,437.3 304.4,446.6 303,446.2 305.6,436.9 "/>
<polygon class="st0" points="328,452.7 333,447.3 326.7,445.4 "/>
<polyline class="st0" points="333.3,437.3 330.6,446.6 329.1,446.2 331.9,436.9 "/>
<polygon class="st0" points="354,452.6 359.1,447.3 352.8,445.3 "/>
<polyline class="st0" points="359.6,437.4 356.7,446.6 355.2,446.1 358.1,436.9 "/>
<polygon class="st0" points="379.8,452.5 385.1,447.3 378.8,445.2 "/>
<polyline class="st0" points="385.8,437.4 382.7,446.5 381.2,446 384.4,436.9 "/>
<polygon class="st0" points="405.5,452.3 410.9,447.3 404.8,445 "/>
<polyline class="st0" points="412,437.4 408.6,446.4 407.2,445.9 410.6,436.9 "/>
<polygon class="st0" points="431.1,452 436.7,447.3 430.7,444.7 "/>
<polyline class="st0" points="438.3,437.4 434.4,446.3 433,445.7 436.9,436.8 "/>
<polygon class="st0" points="456.7,451.7 462.5,447.2 456.6,444.3 "/>
<polyline class="st0" points="464.5,437.5 460.2,446.1 458.9,445.5 463.1,436.8 "/>
<polygon class="st0" points="9.4,424.8 15.6,420.9 10,417.5 "/>
<polyline class="st0" points="18.4,411.3 13.4,419.6 12.1,418.8 17.1,410.5 "/>
<polygon class="st0" points="35.6,424.8 41.8,420.8 36.2,417.5 "/>
<polyline class="st0" points="44.6,411.3 39.6,419.5 38.3,418.8 43.3,410.5 "/>
<polygon class="st0" points="62.3,425 68.3,420.9 62.6,417.7 "/>
<polyline class="st0" points="70.9,411.3 66.1,419.7 64.8,418.9 69.5,410.5 "/>
<polygon class="st0" points="89.2,425.4 95.1,421 89.2,418 "/>
<polyline class="st0" points="97.1,411.2 92.8,419.9 91.5,419.2 95.8,410.6 "/>
<polygon class="st0" points="116.2,425.8 121.9,421 115.8,418.4 "/>
<polyline class="st0" points="123.4,411.2 119.5,420 118.2,419.4 122,410.6 "/>
<polygon class="st0" points="143.2,426.1 148.6,421.1 142.5,418.8 "/>
<polyline class="st0" points="149.6,411.2 146.2,420.2 144.8,419.7 148.2,410.6 "/>
<polygon class="st0" points="170.1,426.3 175.3,421.1 169,419 "/>
<polyline class="st0" points="175.9,411.1 172.9,420.3 171.4,419.8 174.4,410.7 "/>
<polygon class="st0" points="196.8,426.4 201.8,421.1 195.5,419.2 "/>
<polyline class="st0" points="202.1,411.1 199.4,420.4 198,419.9 200.7,410.7 "/>
<polygon class="st0" points="223.4,426.5 228.3,421.1 222,419.3 "/>
<polyline class="st0" points="228.4,411.1 225.9,420.4 224.4,420 226.9,410.7 "/>
<polygon class="st0" points="249.9,426.6 254.7,421 248.3,419.4 "/>
<polyline class="st0" points="254.6,411.1 252.2,420.4 250.8,420 253.2,410.7 "/>
<polygon class="st0" points="276.2,426.6 281,421 274.6,419.4 "/>
<polyline class="st0" points="280.9,411.1 278.5,420.4 277,420.1 279.4,410.7 "/>
<polygon class="st0" points="302.4,426.6 307.2,421 300.8,419.4 "/>
<polyline class="st0" points="307.1,411.1 304.7,420.4 303.3,420.1 305.6,410.7 "/>
<polygon class="st0" points="328.5,426.6 333.3,421.1 327,419.4 "/>
<polyline class="st0" points="333.3,411.1 330.9,420.4 329.4,420 331.9,410.7 "/>
<polygon class="st0" points="354.4,426.5 359.4,421.1 353.1,419.3 "/>
<polyline class="st0" points="359.6,411.1 356.9,420.4 355.5,420 358.1,410.7 "/>
<polygon class="st0" points="380.2,426.4 385.3,421.1 379.1,419.1 "/>
<polyline class="st0" points="385.8,411.1 382.9,420.3 381.5,419.9 384.4,410.7 "/>
<polygon class="st0" points="405.9,426.2 411.2,421.1 405,418.9 "/>
<polyline class="st0" points="412,411.1 408.8,420.2 407.4,419.7 410.6,410.6 "/>
<polygon class="st0" points="431.4,425.9 437,421.1 430.9,418.6 "/>
<polyline class="st0" points="438.3,411.2 434.6,420.1 433.2,419.5 436.9,410.6 "/>
<polygon class="st0" points="456.9,425.5 462.7,421 456.7,418.2 "/>
<polyline class="st0" points="464.5,411.2 460.4,419.9 459,419.3 463.1,410.6 "/>
<polygon class="st0" points="10.5,399.2 16.4,394.7 10.5,391.8 "/>
<polyline class="st0" points="18.4,385 14.1,393.6 12.8,393 17,384.3 "/>
<polygon class="st0" points="36.7,399.2 42.6,394.7 36.7,391.8 "/>
<polyline class="st0" points="44.6,385 40.3,393.6 39,392.9 43.3,384.3 "/>
<polygon class="st0" points="63.5,399.4 69.2,394.8 63.2,392.1 "/>
<polyline class="st0" points="70.9,385 66.9,393.7 65.5,393.1 69.5,384.3 "/>
<polygon class="st0" points="90.5,399.7 96,394.8 89.9,392.4 "/>
<polyline class="st0" points="97.1,384.9 93.6,393.9 92.2,393.4 95.7,384.4 "/>
<polygon class="st0" points="117.6,400 122.8,394.8 116.6,392.8 "/>
<polyline class="st0" points="123.4,384.9 120.4,394 119,393.6 122,384.4 "/>
<polygon class="st0" points="144.6,400.3 149.5,394.8 143.2,393.1 "/>
<polyline class="st0" points="149.6,384.8 147.1,394.1 145.6,393.7 148.2,384.4 "/>
<polygon class="st0" points="171.5,400.4 176.2,394.8 169.8,393.3 "/>
<polyline class="st0" points="175.9,384.8 173.7,394.2 172.2,393.9 174.4,384.5 "/>
<polygon class="st0" points="198.1,400.5 202.7,394.8 196.2,393.4 "/>
<polyline class="st0" points="202.1,384.8 200.2,394.2 198.7,393.9 200.7,384.5 "/>
<polygon class="st0" points="224.7,400.6 229.1,394.7 222.6,393.5 "/>
<polyline class="st0" points="228.4,384.8 226.6,394.3 225.1,394 226.9,384.5 "/>
<polygon class="st0" points="251.1,400.6 255.4,394.7 249,393.6 "/>
<polyline class="st0" points="254.6,384.8 252.9,394.3 251.5,394 253.1,384.5 "/>
<polygon class="st0" points="277.4,400.6 281.7,394.7 275.3,393.6 "/>
<polyline class="st0" points="280.9,384.8 279.2,394.3 277.7,394 279.4,384.5 "/>
<polygon class="st0" points="303.6,400.6 307.9,394.7 301.5,393.6 "/>
<polyline class="st0" points="307.1,384.8 305.5,394.3 304,394 305.6,384.5 "/>
<polygon class="st0" points="329.7,400.6 334.1,394.7 327.6,393.5 "/>
<polyline class="st0" points="333.4,384.8 331.6,394.3 330.1,394 331.9,384.5 "/>
<polygon class="st0" points="355.7,400.5 360.2,394.7 353.8,393.5 "/>
<polyline class="st0" points="359.6,384.8 357.7,394.3 356.2,394 358.1,384.5 "/>
<polygon class="st0" points="381.6,400.5 386.2,394.8 379.8,393.3 "/>
<polyline class="st0" points="385.8,384.8 383.7,394.2 382.3,393.9 384.4,384.5 "/>
<polygon class="st0" points="407.3,400.3 412.1,394.8 405.8,393.2 "/>
<polyline class="st0" points="412.1,384.8 409.7,394.2 408.2,393.8 410.6,384.5 "/>
<polygon class="st0" points="432.9,400.1 437.9,394.8 431.6,392.9 "/>
<polyline class="st0" points="438.3,384.9 435.5,394.1 434,393.7 436.9,384.4 "/>
<polygon class="st0" points="458.3,399.9 463.6,394.8 457.4,392.6 "/>
<polyline class="st0" points="464.5,384.9 461.2,394 459.8,393.4 463.1,384.4 "/>
<polygon class="st0" points="14.9,374.4 19.3,368.5 12.8,367.3 "/>
<polyline class="st0" points="18.5,358.5 16.8,368 15.3,367.8 17,358.3 "/>
<polygon class="st0" points="41.1,374.4 45.5,368.5 39,367.3 "/>
<polyline class="st0" points="44.7,358.5 43,368 41.5,367.8 43.2,358.3 "/>
<polygon class="st0" points="67.7,374.4 72,368.4 65.5,367.4 "/>
<polyline class="st0" points="70.9,358.5 69.5,368.1 68,367.8 69.5,358.3 "/>
<polygon class="st0" points="94.4,374.5 98.5,368.4 92,367.6 "/>
<polyline class="st0" points="97.2,358.5 96,368.1 94.5,367.9 95.7,358.3 "/>
<polygon class="st0" points="121.1,374.5 125,368.3 118.5,367.7 "/>
<polyline class="st0" points="123.4,358.5 122.5,368.1 121,367.9 121.9,358.3 "/>
<polygon class="st0" points="147.6,374.6 151.4,368.3 144.9,367.8 "/>
<polyline class="st0" points="149.7,358.5 148.9,368.1 147.4,368 148.2,358.3 "/>
<polygon class="st0" points="174.1,374.6 177.8,368.2 171.3,367.8 "/>
<polyline class="st0" points="175.9,358.5 175.3,368.1 173.8,368 174.4,358.4 "/>
<polygon class="st0" points="200.5,374.6 204.1,368.2 197.6,367.9 "/>
<polyline class="st0" points="202.2,358.4 201.6,368.1 200.1,368 200.7,358.4 "/>
<polygon class="st0" points="226.8,374.6 230.4,368.2 223.9,367.9 "/>
<polyline class="st0" points="228.4,358.4 227.9,368.1 226.4,368 226.9,358.4 "/>
<polygon class="st0" points="253.1,374.6 256.7,368.2 250.2,367.9 "/>
<polyline class="st0" points="254.6,358.4 254.2,368.1 252.7,368 253.1,358.4 "/>
<polygon class="st0" points="279.4,374.6 283,368.2 276.4,367.9 "/>
<polyline class="st0" points="280.9,358.4 280.4,368.1 278.9,368 279.4,358.4 "/>
<polygon class="st0" points="305.6,374.6 309.2,368.2 302.6,367.9 "/>
<polyline class="st0" points="307.1,358.4 306.7,368.1 305.2,368 305.6,358.4 "/>
<polygon class="st0" points="331.8,374.6 335.4,368.2 328.9,367.9 "/>
<polyline class="st0" points="333.4,358.4 332.9,368.1 331.4,368 331.9,358.4 "/>
<g>
	<polygon class="st0" points="358,374.6 361.6,368.2 355.1,367.9 	"/>
	<polyline class="st0" points="359.6,358.4 359.1,368.1 357.6,368 358.1,358.4 	"/>
</g>
<polygon class="st0" points="384.1,374.6 387.8,368.2 381.2,367.8 "/>
<polyline class="st0" points="385.8,358.5 385.3,368.1 383.8,368 384.3,358.4 "/>
<polygon class="st0" points="410.2,374.6 413.9,368.3 407.4,367.8 "/>
<polyline class="st0" points="412.1,358.5 411.4,368.1 409.9,368 410.6,358.4 "/>
<polygon class="st0" points="436.1,374.5 440,368.3 433.4,367.7 "/>
<polyline class="st0" points="438.3,358.5 437.5,368.1 436,367.9 436.8,358.3 "/>
<polygon class="st0" points="462,374.5 466,368.4 459.5,367.6 "/>
<polyline class="st0" points="464.6,358.5 463.5,368.1 462,367.9 463.1,358.3 "/>
<polygon class="st0" points="28.7,344.1 26.7,337 21.9,341.5 "/>
<polyline class="st0" points="18.3,331.7 24.8,338.7 23.7,339.8 17.2,332.7 "/>
<polygon class="st0" points="55.1,343.9 53,336.9 48.2,341.4 "/>
<polyline class="st0" points="44.5,331.6 51.2,338.6 50.1,339.7 43.4,332.7 "/>
<polygon class="st0" points="128,347.5 128.9,340.2 122.7,342.4 "/>
<polyline class="st0" points="123.4,331.9 126.5,341 125.1,341.5 122,332.4 "/>
<polygon class="st0" points="152.9,347.9 154.5,340.7 148.1,342.3 "/>
<polyline class="st0" points="149.7,332 152,341.3 150.6,341.7 148.2,332.4 "/>
<polygon class="st0" points="178.3,348.1 180.3,341 173.8,342.3 "/>
<polyline class="st0" points="175.9,332 177.8,341.5 176.3,341.8 174.4,332.3 "/>
<polygon class="st0" points="204.1,348.2 206.2,341.1 199.7,342.2 "/>
<polyline class="st0" points="202.1,332 203.7,341.6 202.2,341.8 200.7,332.3 "/>
<polygon class="st0" points="230,348.2 232.3,341.2 225.8,342.2 "/>
<polyline class="st0" points="228.4,332.1 229.8,341.6 228.3,341.8 226.9,332.3 "/>
<polygon class="st0" points="256,348.2 258.4,341.3 251.9,342.2 "/>
<polyline class="st0" points="254.6,332.1 255.9,341.6 254.4,341.8 253.1,332.3 "/>
<polygon class="st0" points="282.2,348.2 284.6,341.3 278.1,342.2 "/>
<polyline class="st0" points="280.9,332.1 282.1,341.6 280.6,341.8 279.4,332.3 "/>
<polygon class="st0" points="308.5,348.2 310.9,341.3 304.4,342.2 "/>
<polyline class="st0" points="307.1,332.1 308.4,341.6 306.9,341.8 305.6,332.3 "/>
<polygon class="st0" points="334.9,348.2 337.2,341.3 330.7,342.2 "/>
<polyline class="st0" points="333.4,332.1 334.7,341.6 333.2,341.8 331.9,332.3 "/>
<polygon class="st0" points="361.4,348.2 363.6,341.2 357.1,342.2 "/>
<polyline class="st0" points="359.6,332 361.1,341.6 359.6,341.8 358.1,332.3 "/>
<polygon class="st0" points="388,348.1 390.1,341.1 383.6,342.2 "/>
<polyline class="st0" points="385.8,332 387.6,341.5 386.1,341.8 384.4,332.3 "/>
<polygon class="st0" points="415,348 416.7,340.8 410.3,342.3 "/>
<polyline class="st0" points="412.1,332 414.2,341.4 412.8,341.7 410.6,332.3 "/>
<polygon class="st0" points="442.3,347.7 443.5,340.4 437.2,342.3 "/>
<polyline class="st0" points="438.3,331.9 441.1,341.2 439.7,341.6 436.9,332.4 "/>
<polygon class="st0" points="470.2,347.1 470.6,339.7 464.6,342.3 "/>
<polyline class="st0" points="464.5,331.9 468.3,340.7 466.9,341.3 463.1,332.5 "/>
<polygon class="st0" points="33.9,304.7 27.1,301.9 27.6,308.5 "/>
<polyline class="st0" points="17.7,305.2 27.3,304.5 27.4,306 17.8,306.7 "/>
<polygon class="st0" points="60.1,304.5 53.3,301.8 53.8,308.4 "/>
<polyline class="st0" points="43.9,305.2 53.5,304.3 53.6,305.9 44,306.7 "/>
<polygon class="st0" points="135.8,315.5 132.4,308.9 128.6,314.2 "/>
<polyline class="st0" points="123.1,305.3 130.9,311 130,312.2 122.2,306.5 "/>
<polygon class="st0" points="159.4,318.3 157.6,311.2 152.6,315.4 "/>
<polyline class="st0" points="149.5,305.4 155.7,312.8 154.6,313.8 148.3,306.4 "/>
<polygon class="st0" points="183.5,319.8 182.9,312.5 177.3,315.9 "/>
<polyline class="st0" points="175.8,305.5 180.8,313.8 179.5,314.6 174.5,306.3 "/>
<polygon class="st0" points="208.3,320.6 208.5,313.2 202.6,316 "/>
<polyline class="st0" points="202.1,305.6 206.2,314.3 204.9,315 200.7,306.2 "/>
<polygon class="st0" points="233.7,321 234.3,313.6 228.2,316.1 "/>
<polyline class="st0" points="228.3,305.6 232,314.6 230.6,315.1 226.9,306.2 "/>
<polygon class="st0" points="259.5,321.1 260.3,313.9 254.1,316.1 "/>
<polyline class="st0" points="254.6,305.7 257.9,314.7 256.5,315.2 253.2,306.2 "/>
<polygon class="st0" points="285.5,321.2 286.4,313.9 280.2,316.1 "/>
<polyline class="st0" points="280.8,305.7 284,314.8 282.6,315.3 279.4,306.2 "/>
<polygon class="st0" points="311.8,321.2 312.7,313.9 306.5,316.1 "/>
<polyline class="st0" points="307.1,305.7 310.3,314.7 308.9,315.3 305.7,306.2 "/>
<polygon class="st0" points="338.4,321 339.1,313.7 333,316.1 "/>
<polyline class="st0" points="333.3,305.7 336.8,314.7 335.4,315.2 331.9,306.2 "/>
<polygon class="st0" points="365.4,320.7 365.7,313.4 359.7,316.1 "/>
<polyline class="st0" points="359.5,305.6 363.4,314.4 362.1,315.1 358.2,306.2 "/>
<polygon class="st0" points="392.8,320.2 392.6,312.8 386.8,316 "/>
<polyline class="st0" points="385.8,305.6 390.4,314 389,314.8 384.4,306.3 "/>
<polygon class="st0" points="420.9,319 419.7,311.8 414.4,315.6 "/>
<polyline class="st0" points="411.9,305.5 417.6,313.3 416.4,314.2 410.7,306.4 "/>
<polygon class="st0" points="449.6,316.8 446.9,309.9 442.6,314.8 "/>
<polyline class="st0" points="438.1,305.4 445.3,311.8 444.2,312.9 437.1,306.5 "/>
<polygon class="st0" points="478.4,312.9 473.9,307.1 471.1,313 "/>
<polyline class="st0" points="464.1,305.2 472.8,309.4 472.2,310.8 463.5,306.6 "/>
<polygon class="st0" points="32.6,273.2 25.2,272.8 27.9,278.8 "/>
<polyline class="st0" points="17.4,279 26.3,275.1 26.9,276.5 18,280.4 "/>
<polygon class="st0" points="58.8,273.1 51.4,272.8 54.1,278.8 "/>
<polyline class="st0" points="43.7,279 52.5,275.1 53.1,276.4 44.3,280.4 "/>
<polygon class="st0" points="85.5,274.4 78.2,273.4 80.4,279.6 "/>
<polyline class="st0" points="70,279 79.1,275.8 79.6,277.2 70.4,280.4 "/>
<polygon class="st0" points="112.5,277.3 105.5,275 106.5,281.5 "/>
<polyline class="st0" points="96.3,278.9 105.9,277.5 106.1,279 96.6,280.4 "/>
<polygon class="st0" points="187.9,289.7 184.8,283.1 180.7,288.2 "/>
<polyline class="st0" points="175.6,279.1 183.2,285 182.3,286.2 174.7,280.3 "/>
<polygon class="st0" points="212.3,291.7 210.3,284.6 205.5,289 "/>
<polyline class="st0" points="202,279.2 208.5,286.3 207.3,287.3 200.8,280.2 "/>
<polygon class="st0" points="237.3,292.7 236,285.5 230.7,289.4 "/>
<polyline class="st0" points="228.3,279.2 234,287 232.8,287.9 227,280.1 "/>
<polygon class="st0" points="262.7,293.3 261.9,286 256.4,289.6 "/>
<polyline class="st0" points="254.5,279.3 259.8,287.4 258.5,288.2 253.3,280.1 "/>
<polygon class="st0" points="288.7,293.4 288,286.1 282.4,289.6 "/>
<polyline class="st0" points="280.8,279.3 285.9,287.5 284.6,288.3 279.5,280.1 "/>
<polygon class="st0" points="315,293.4 314.3,286.1 308.8,289.6 "/>
<polyline class="st0" points="307,279.3 312.2,287.4 310.9,288.2 305.7,280.1 "/>
<polygon class="st0" points="341.9,293 340.8,285.7 335.4,289.5 "/>
<polyline class="st0" points="333.2,279.3 338.7,287.2 337.5,288 332,280.1 "/>
<polygon class="st0" points="369.2,292.2 367.5,285 362.5,289.2 "/>
<polyline class="st0" points="359.4,279.2 365.6,286.6 364.4,287.6 358.3,280.2 "/>
<polygon class="st0" points="397.1,290.6 394.4,283.7 390,288.6 "/>
<polyline class="st0" points="385.6,279.1 392.7,285.6 391.7,286.7 384.6,280.2 "/>
<polygon class="st0" points="425.4,287.8 421.3,281.7 418,287.4 "/>
<polyline class="st0" points="411.7,279 420.1,283.9 419.3,285.2 411,280.3 "/>
<polygon class="st0" points="453.3,283.6 447.7,278.8 446.2,285.2 "/>
<polyline class="st0" points="437.8,278.9 447.1,281.3 446.8,282.7 437.4,280.4 "/>
<polygon class="st0" points="480,278.9 473.3,275.9 473.6,282.5 "/>
<polyline class="st0" points="463.8,278.9 473.4,278.4 473.5,280 463.9,280.4 "/>
<polygon class="st0" points="30.9,244.1 23.7,245.2 27.5,250.5 "/>
<polyline class="st0" points="17.3,252.8 25.1,247.2 26,248.5 18.2,254.1 "/>
<polygon class="st0" points="57.1,244 49.9,245.2 53.7,250.5 "/>
<polyline class="st0" points="43.5,252.8 51.4,247.2 52.2,248.4 44.4,254.1 "/>
<polygon class="st0" points="83.9,244.8 76.6,245.5 80.1,251.1 "/>
<polyline class="st0" points="69.8,252.8 78,247.7 78.8,248.9 70.6,254.1 "/>
<polygon class="st0" points="111.2,246.7 103.8,246.4 106.6,252.4 "/>
<polyline class="st0" points="96.1,252.8 104.9,248.7 105.5,250.1 96.8,254.1 "/>
<polygon class="st0" points="190.5,258.7 185.4,253.5 183.2,259.7 "/>
<polyline class="st0" points="175.4,252.7 184.5,255.9 184,257.3 174.9,254.2 "/>
<polygon class="st0" points="215.2,261.9 211.3,255.7 207.9,261.3 "/>
<polyline class="st0" points="201.8,252.8 210,257.9 209.2,259.1 201,254.1 "/>
<polygon class="st0" points="240.1,263.9 237.1,257.1 232.9,262.2 "/>
<polyline class="st0" points="228.1,252.9 235.5,259.1 234.6,260.2 227.2,254 "/>
<polygon class="st0" points="265.4,264.8 263,257.9 258.4,262.6 "/>
<polyline class="st0" points="254.4,252.9 261.3,259.7 260.2,260.8 253.4,254 "/>
<polygon class="st0" points="291.3,265.2 289.1,258.2 284.4,262.7 "/>
<polyline class="st0" points="280.7,252.9 287.3,259.9 286.2,261 279.6,254 "/>
<polygon class="st0" points="317.7,265.1 315.4,258.1 310.7,262.6 "/>
<polyline class="st0" points="306.9,252.9 313.6,259.8 312.6,260.9 305.8,254 "/>
<polygon class="st0" points="344.6,264.3 342,257.5 337.5,262.4 "/>
<polyline class="st0" points="333.1,252.9 340.3,259.4 339.2,260.5 332.1,254 "/>
<polygon class="st0" points="372.1,262.8 368.6,256.3 364.8,261.7 "/>
<polyline class="st0" points="359.3,252.8 367.2,258.4 366.3,259.6 358.4,254.1 "/>
<polygon class="st0" points="399.9,260.1 395.2,254.4 392.5,260.4 "/>
<polyline class="st0" points="385.4,252.8 394.2,256.7 393.6,258.1 384.8,254.1 "/>
<polygon class="st0" points="427.3,256.1 421.4,251.8 420.3,258.3 "/>
<polyline class="st0" points="411.5,252.7 421,254.3 420.7,255.8 411.2,254.2 "/>
<polygon class="st0" points="453.7,251.5 446.8,249 447.5,255.5 "/>
<polyline class="st0" points="437.5,252.7 447.1,251.5 447.2,253 437.7,254.2 "/>
<polygon class="st0" points="479,247.7 471.7,247 474,253.1 "/>
<polyline class="st0" points="463.6,252.7 472.6,249.3 473.1,250.8 464.1,254.1 "/>
<polygon class="st0" points="28.9,215.5 22,218 26.8,222.5 "/>
<polyline class="st0" points="17.2,226.7 23.9,219.7 24.9,220.8 18.3,227.7 "/>
<polygon class="st0" points="55.1,215.5 48.2,218 53,222.5 "/>
<polyline class="st0" points="43.4,226.7 50.1,219.7 51.2,220.7 44.5,227.7 "/>
<polygon class="st0" points="81.9,216 74.9,218.1 79.4,222.9 "/>
<polyline class="st0" points="69.7,226.7 76.6,220 77.7,221.1 70.7,227.7 "/>
<polygon class="st0" points="109.1,217.1 102,218.6 106,223.8 "/>
<polyline class="st0" points="96,226.6 103.5,220.6 104.5,221.8 96.9,227.8 "/>
<polygon class="st0" points="136.8,219.3 129.5,219.6 132.7,225.4 "/>
<polyline class="st0" points="122.3,226.5 130.7,221.8 131.5,223.2 123,227.9 "/>
<polygon class="st0" points="164.5,222.8 157.3,221.5 159.1,227.8 "/>
<polyline class="st0" points="148.7,226.5 158,223.9 158.4,225.3 149.1,227.9 "/>
<polygon class="st0" points="191.4,227.4 184.8,224 184.8,230.6 "/>
<polyline class="st0" points="175.2,226.4 184.8,226.6 184.8,228.1 175.2,228 "/>
<polygon class="st0" points="217,231.6 211.6,226.7 209.8,233 "/>
<polyline class="st0" points="201.6,226.5 210.9,229.1 210.5,230.5 201.2,227.9 "/>
<polygon class="st0" points="242.1,234.5 237.7,228.6 234.8,234.5 "/>
<polyline class="st0" points="228,226.5 236.6,230.9 235.9,232.2 227.3,227.9 "/>
<polygon class="st0" points="267.4,236.1 263.7,229.8 260.1,235.2 "/>
<polyline class="st0" points="254.3,226.6 262.4,231.9 261.5,233.1 253.5,227.8 "/>
<polygon class="st0" points="293.3,236.7 289.9,230.2 286,235.5 "/>
<polyline class="st0" points="280.6,226.6 288.4,232.2 287.5,233.5 279.7,227.8 "/>
<polygon class="st0" points="319.7,236.4 316.2,230 312.4,235.4 "/>
<polyline class="st0" points="306.8,226.6 314.7,232.1 313.9,233.3 305.9,227.8 "/>
<polygon class="st0" points="346.7,235.3 342.6,229.2 339.3,234.8 "/>
<polyline class="st0" points="333,226.5 341.3,231.4 340.6,232.7 332.2,227.9 "/>
<polygon class="st0" points="374,232.9 369,227.5 366.7,233.7 "/>
<polyline class="st0" points="359.1,226.5 368.1,229.9 367.6,231.3 358.6,227.9 "/>
<polygon class="st0" points="401.2,229.1 395.1,225.1 394.3,231.6 "/>
<polyline class="st0" points="385.2,226.5 394.8,227.6 394.6,229.1 385,227.9 "/>
<polygon class="st0" points="427.3,224.5 420.3,222.4 421.4,228.9 "/>
<polyline class="st0" points="411.2,226.5 420.7,224.9 421,226.4 411.5,227.9 "/>
<polygon class="st0" points="452.3,220.5 445,220.2 447.7,226.2 "/>
<polyline class="st0" points="437.3,226.5 446.1,222.5 446.7,223.9 437.9,227.9 "/>
<polygon class="st0" points="477,217.8 469.8,218.9 473.6,224.3 "/>
<polyline class="st0" points="463.4,226.6 471.2,221 472.1,222.2 464.3,227.8 "/>
<polygon class="st0" points="26.3,187.2 20.1,191 25.6,194.5 "/>
<polyline class="st0" points="17.1,200.6 22.2,192.4 23.5,193.2 18.4,201.4 "/>
<polygon class="st0" points="52.5,187.2 46.3,191 51.8,194.5 "/>
<polyline class="st0" points="43.3,200.6 48.4,192.4 49.7,193.2 44.6,201.4 "/>
<polygon class="st0" points="79.2,187.5 72.8,191.1 78.3,194.7 "/>
<polyline class="st0" points="69.6,200.5 74.9,192.5 76.2,193.3 70.8,201.4 "/>
<polygon class="st0" points="106.3,188.1 99.7,191.3 104.9,195.3 "/>
<polyline class="st0" points="95.8,200.5 101.7,192.8 102.9,193.8 97,201.4 "/>
<polygon class="st0" points="134,189.3 127,191.8 131.8,196.3 "/>
<polyline class="st0" points="122.1,200.4 128.9,193.5 129.9,194.6 123.2,201.5 "/>
<polygon class="st0" points="162.1,191.6 154.9,192.7 158.7,198.1 "/>
<polyline class="st0" points="148.5,200.3 156.4,194.8 157.2,196 149.4,201.6 "/>
<polygon class="st0" points="190.3,195.3 183.1,194.5 185.3,200.7 "/>
<polyline class="st0" points="174.9,200.3 183.9,196.9 184.5,198.3 175.4,201.7 "/>
<polygon class="st0" points="217.6,200 210.8,197.1 211.2,203.7 "/>
<polyline class="st0" points="201.4,200.2 211,199.6 211.1,201.2 201.4,201.7 "/>
<polygon class="st0" points="243.5,204.2 237.7,199.6 236.5,206.1 "/>
<polyline class="st0" points="227.8,200.2 237.2,202.1 237,203.6 227.5,201.7 "/>
<polygon class="st0" points="269,206.7 264.1,201.3 261.7,207.4 "/>
<polyline class="st0" points="254.2,200.3 263.2,203.7 262.6,205.1 253.6,201.7 "/>
<polygon class="st0" points="294.9,207.7 290.3,202 287.6,207.9 "/>
<polyline class="st0" points="280.4,200.3 289.2,204.3 288.6,205.6 279.8,201.6 "/>
<polygon class="st0" points="321.3,207.2 316.5,201.7 314,207.7 "/>
<polyline class="st0" points="306.7,200.3 315.6,204 315,205.4 306.1,201.7 "/>
<polygon class="st0" points="348.2,205.3 342.8,200.4 341,206.7 "/>
<polyline class="st0" points="332.8,200.2 342.1,202.8 341.7,204.3 332.4,201.7 "/>
<polygon class="st0" points="375,201.8 368.6,198.2 368.3,204.7 "/>
<polyline class="st0" points="358.9,200.2 368.5,200.7 368.4,202.2 358.8,201.7 "/>
<polygon class="st0" points="400.8,197.1 393.7,195.5 395.2,201.8 "/>
<polyline class="st0" points="384.9,200.2 394.3,197.9 394.6,199.4 385.3,201.7 "/>
<polygon class="st0" points="425.4,192.8 418,193.3 421.3,199 "/>
<polyline class="st0" points="411,200.3 419.3,195.5 420.1,196.8 411.7,201.6 "/>
<polygon class="st0" points="449.6,190.1 442.5,192 446.9,196.9 "/>
<polyline class="st0" points="437.1,200.4 444.2,193.9 445.2,195 438.1,201.5 "/>
<polygon class="st0" points="474.2,188.5 467.4,191.4 472.5,195.6 "/>
<polyline class="st0" points="463.2,200.5 469.4,193.1 470.5,194 464.4,201.4 "/>
<polygon class="st0" points="23.1,159.4 17.9,164.5 24,166.7 "/>
<polyline class="st0" points="17,174.5 20.2,165.4 21.7,165.9 18.4,175 "/>
<polygon class="st0" points="49.4,159.4 44.1,164.5 50.3,166.7 "/>
<polyline class="st0" points="43.2,174.5 46.5,165.4 47.9,165.9 44.7,175 "/>
<polygon class="st0" points="75.9,159.5 70.5,164.5 76.6,166.8 "/>
<polyline class="st0" points="69.5,174.5 72.9,165.4 74.3,165.9 70.9,175 "/>
<polygon class="st0" points="102.7,159.8 97.1,164.6 103.2,167.1 "/>
<polyline class="st0" points="95.7,174.4 99.4,165.5 100.8,166.1 97.1,175 "/>
<polygon class="st0" points="129.9,160.2 124,164.6 129.9,167.5 "/>
<polyline class="st0" points="122,174.4 126.3,165.7 127.6,166.4 123.4,175.1 "/>
<polygon class="st0" points="157.7,161.1 151.4,164.8 156.9,168.4 "/>
<polyline class="st0" points="148.3,174.3 153.5,166.2 154.8,167 149.6,175.1 "/>
<polygon class="st0" points="186.2,162.8 179.3,165.4 184.1,169.9 "/>
<polyline class="st0" points="174.6,174.2 181.2,167.1 182.3,168.2 175.7,175.2 "/>
<polygon class="st0" points="215.1,166.1 207.8,166.8 211.3,172.3 "/>
<polyline class="st0" points="201,174.1 209.2,168.9 210,170.2 201.8,175.4 "/>
<polygon class="st0" points="243.3,170.6 236.1,169.1 237.8,175.4 "/>
<polyline class="st0" points="227.5,174 236.8,171.5 237.2,173 227.8,175.4 "/>
<polygon class="st0" points="270.1,174.5 263.5,171.3 263.6,177.9 "/>
<polyline class="st0" points="253.9,174 263.5,173.9 263.5,175.4 253.9,175.5 "/>
<polygon class="st0" points="296.3,176.3 290,172.4 289.4,178.9 "/>
<polyline class="st0" points="280.2,174 289.8,174.9 289.7,176.4 280.1,175.5 "/>
<polygon class="st0" points="322.6,175.5 316.2,171.9 315.8,178.5 "/>
<polyline class="st0" points="306.4,174 316,174.4 316,175.9 306.3,175.5 "/>
<polygon class="st0" points="348.6,172.3 341.7,170 342.6,176.5 "/>
<polyline class="st0" points="332.5,174 342,172.5 342.3,174 332.7,175.5 "/>
<polygon class="st0" points="373.5,167.7 366.1,167.6 369,173.5 "/>
<polyline class="st0" points="358.5,174 367.2,169.9 367.9,171.2 359.2,175.4 "/>
<polygon class="st0" points="397.1,163.9 390.1,165.8 394.5,170.7 "/>
<polyline class="st0" points="384.6,174.2 391.8,167.7 392.8,168.8 385.6,175.3 "/>
<polygon class="st0" points="420.9,161.6 414.4,165 419.7,168.9 "/>
<polyline class="st0" points="410.7,174.3 416.4,166.5 417.6,167.4 411.9,175.2 "/>
<polygon class="st0" points="445.3,160.5 439.3,164.7 445.1,167.8 "/>
<polyline class="st0" points="436.9,174.4 441.5,165.9 442.8,166.6 438.2,175.1 "/>
<polygon class="st0" points="470.4,159.9 464.7,164.6 470.7,167.2 "/>
<polyline class="st0" points="463.1,174.4 467,165.6 468.4,166.2 464.5,175 "/>
<polygon class="st0" points="19.8,132.4 15.7,138.5 22.2,139.3 "/>
<polyline class="st0" points="17,148.4 18.2,138.8 19.7,139 18.5,148.6 "/>
<polygon class="st0" points="46.1,132.4 42,138.5 48.5,139.3 "/>
<polyline class="st0" points="43.2,148.4 44.5,138.8 46,139 44.7,148.6 "/>
<polygon class="st0" points="72.4,132.4 68.2,138.5 74.8,139.4 "/>
<polyline class="st0" points="69.5,148.4 70.8,138.8 72.2,139 70.9,148.6 "/>
<polygon class="st0" points="98.8,132.4 94.6,138.5 101.1,139.4 "/>
<polyline class="st0" points="95.7,148.4 97.1,138.8 98.6,139 97.2,148.6 "/>
<polygon class="st0" points="125.4,132.5 121.1,138.4 127.5,139.5 "/>
<polyline class="st0" points="121.9,148.3 123.6,138.8 125.1,139.1 123.4,148.6 "/>
<polygon class="st0" points="152.2,132.6 147.7,138.4 154.1,139.7 "/>
<polyline class="st0" points="148.2,148.3 150.2,138.9 151.6,139.2 149.7,148.6 "/>
<polygon class="st0" points="179.4,132.8 174.5,138.3 180.8,140 "/>
<polyline class="st0" points="174.4,148.3 177,139 178.4,139.4 175.9,148.7 "/>
<polygon class="st0" points="207.1,133.3 201.7,138.3 207.9,140.6 "/>
<polyline class="st0" points="200.7,148.2 204.1,139.2 205.5,139.7 202.1,148.7 "/>
<polygon class="st0" points="235.4,134.2 229.4,138.4 235.1,141.6 "/>
<polyline class="st0" points="227,148.1 231.6,139.6 232.9,140.4 228.3,148.8 "/>
<polygon class="st0" points="263.9,135.7 257.3,138.9 262.4,142.9 "/>
<polyline class="st0" points="253.3,148 259.3,140.4 260.4,141.4 254.5,148.9 "/>
<polygon class="st0" points="291.4,136.9 284.5,139.3 289.2,143.9 "/>
<polyline class="st0" points="279.6,148 286.3,141 287.4,142.1 280.7,149 "/>
<polygon class="st0" points="317.1,136.3 310.3,139.1 315.2,143.4 "/>
<polyline class="st0" points="305.8,148 312.2,140.7 313.3,141.7 306.9,149 "/>
<polygon class="st0" points="341.3,134.8 335,138.6 340.5,142.1 "/>
<polyline class="st0" points="332,148.1 337.1,139.9 338.4,140.7 333.2,148.9 "/>
<polygon class="st0" points="365.2,133.6 359.6,138.3 365.7,140.9 "/>
<polyline class="st0" points="358.2,148.2 362,139.3 363.4,139.9 359.5,148.8 "/>
<polygon class="st0" points="389.8,133 384.8,138.3 391,140.2 "/>
<polyline class="st0" points="384.4,148.3 387.2,139 388.6,139.5 385.8,148.7 "/>
<polygon class="st0" points="415,132.7 410.3,138.3 416.7,139.8 "/>
<polyline class="st0" points="410.6,148.3 412.8,138.9 414.2,139.2 412.1,148.6 "/>
<polygon class="st0" points="440.5,132.5 436.1,138.4 442.5,139.6 "/>
<polyline class="st0" points="436.8,148.3 438.6,138.9 440.1,139.1 438.3,148.6 "/>
<polygon class="st0" points="466.3,132.5 462.1,138.4 468.5,139.5 "/>
<polyline class="st0" points="463.1,148.4 464.6,138.8 466.1,139.1 464.6,148.6 "/>
<polygon class="st0" points="17,106 14,112.8 20.6,112.5 "/>
<polyline class="st0" points="17,122.3 16.5,112.6 18,112.6 18.5,122.2 "/>
<polygon class="st0" points="43.2,106 40.2,112.8 46.8,112.5 "/>
<polyline class="st0" points="43.2,122.3 42.8,112.6 44.3,112.6 44.7,122.2 "/>
<polygon class="st0" points="69.4,106 66.5,112.8 73,112.4 "/>
<polyline class="st0" points="69.4,122.3 69,112.6 70.5,112.6 71,122.2 "/>
<polygon class="st0" points="95.6,106.1 92.7,112.8 99.2,112.4 "/>
<polyline class="st0" points="95.7,122.3 95.2,112.6 96.7,112.6 97.2,122.2 "/>
<polygon class="st0" points="121.7,106.1 118.8,112.8 125.4,112.4 "/>
<polyline class="st0" points="121.9,122.3 121.4,112.7 122.9,112.6 123.4,122.2 "/>
<polygon class="st0" points="147.8,106.1 145,112.8 151.5,112.4 "/>
<polyline class="st0" points="148.2,122.3 147.5,112.7 149,112.6 149.7,122.2 "/>
<polygon class="st0" points="199.7,106.1 197.1,113 203.7,112.3 "/>
<polyline class="st0" points="200.7,122.3 199.7,112.7 201.2,112.6 202.2,122.2 "/>
<polygon class="st0" points="225.5,106.2 223.1,113.1 229.6,112.2 "/>
<polyline class="st0" points="226.9,122.3 225.6,112.8 227.1,112.6 228.4,122.1 "/>
<polygon class="st0" points="251.3,106.2 249.1,113.2 255.6,112.2 "/>
<polyline class="st0" points="253.1,122.4 251.6,112.8 253.1,112.6 254.6,122.1 "/>
<polygon class="st0" points="277.3,106.3 275.2,113.3 281.6,112.2 "/>
<polyline class="st0" points="279.4,122.4 277.7,112.9 279.2,112.6 280.9,122.1 "/>
<polygon class="st0" points="303.6,106.3 301.5,113.3 308,112.2 "/>
<polyline class="st0" points="305.6,122.4 304,112.9 305.5,112.6 307.1,122.1 "/>
<polygon class="st0" points="330.3,106.2 328,113.2 334.5,112.2 "/>
<polyline class="st0" points="331.9,122.3 330.5,112.8 332,112.6 333.4,122.1 "/>
<polygon class="st0" points="357,106.1 354.5,113 361,112.3 "/>
<polyline class="st0" points="358.1,122.3 357,112.7 358.5,112.6 359.6,122.1 "/>
<polygon class="st0" points="383.6,106.1 381,112.9 387.5,112.3 "/>
<polyline class="st0" points="384.3,122.3 383.5,112.7 385,112.6 385.8,122.2 "/>
<polygon class="st0" points="410.2,106.1 407.4,112.9 413.9,112.4 "/>
<polyline class="st0" points="410.6,122.3 409.9,112.7 411.4,112.6 412.1,122.2 "/>
<polygon class="st0" points="436.6,106.1 433.7,112.8 440.3,112.4 "/>
<polyline class="st0" points="436.8,122.3 436.2,112.7 437.7,112.6 438.3,122.2 "/>
<polygon class="st0" points="462.9,106.1 460,112.8 466.6,112.4 "/>
<polyline class="st0" points="463.1,122.3 462.5,112.6 464.1,112.6 464.6,122.2 "/>
<polygon class="st0" points="14.9,80 12.8,87.1 19.3,85.9 "/>
<polyline class="st0" points="17,96.1 15.3,86.6 16.8,86.4 18.5,95.9 "/>
<polygon class="st0" points="41.2,80 39.1,87.1 45.5,85.9 "/>
<polyline class="st0" points="43.2,96.1 41.6,86.6 43.1,86.4 44.7,95.9 "/>
<polygon class="st0" points="67.3,80 65.3,87.1 71.7,85.9 "/>
<polyline class="st0" points="69.5,96.1 67.8,86.6 69.2,86.4 70.9,95.9 "/>
<polygon class="st0" points="93.4,80.1 91.4,87.1 97.8,85.9 "/>
<polyline class="st0" points="95.7,96.1 93.9,86.7 95.4,86.4 97.2,95.9 "/>
<polygon class="st0" points="119.3,80.1 117.5,87.2 123.9,85.9 "/>
<polyline class="st0" points="121.9,96.2 119.9,86.7 121.4,86.4 123.4,95.8 "/>
<polygon class="st0" points="145.1,80.2 143.5,87.4 149.8,85.8 "/>
<polyline class="st0" points="148.2,96.2 145.9,86.8 147.4,86.4 149.7,95.8 "/>
<polygon class="st0" points="196.2,80.7 195.2,87.9 201.4,85.8 "/>
<polyline class="st0" points="200.7,96.2 197.6,87.1 199,86.6 202.1,95.8 "/>
<polygon class="st0" points="221.5,81 221,88.3 227.1,85.8 "/>
<polyline class="st0" points="226.9,96.3 223.3,87.3 224.7,86.8 228.3,95.7 "/>
<polygon class="st0" points="247,81.3 246.8,88.7 252.8,85.9 "/>
<polyline class="st0" points="253.2,96.3 249.1,87.6 250.5,86.9 254.6,95.7 "/>
<polygon class="st0" points="272.9,81.5 272.9,88.8 278.7,85.9 "/>
<polyline class="st0" points="279.5,96.3 275.1,87.7 276.5,87 280.8,95.7 "/>
<polygon class="st0" points="299.3,81.4 299.2,88.8 305.1,85.9 "/>
<polyline class="st0" points="305.7,96.3 301.5,87.6 302.8,87 307,95.7 "/>
<polygon class="st0" points="326.2,81.1 325.8,88.4 331.8,85.8 "/>
<polyline class="st0" points="331.9,96.3 328.1,87.4 329.5,86.8 333.3,95.7 "/>
<polygon class="st0" points="353.3,80.8 352.5,88.1 358.6,85.8 "/>
<polyline class="st0" points="358.1,96.3 354.8,87.2 356.2,86.7 359.6,95.7 "/>
<polygon class="st0" points="380.4,80.5 379.1,87.7 385.4,85.8 "/>
<polyline class="st0" points="384.4,96.2 381.6,87 383,86.5 385.8,95.8 "/>
<polygon class="st0" points="407.3,80.3 405.8,87.5 412.1,85.8 "/>
<polyline class="st0" points="410.6,96.2 408.2,86.8 409.7,86.5 412.1,95.8 "/>
<polygon class="st0" points="434.1,80.2 432.3,87.3 438.7,85.9 "/>
<polyline class="st0" points="436.8,96.2 434.7,86.7 436.2,86.4 438.3,95.8 "/>
<polygon class="st0" points="460.7,80.1 458.7,87.2 465.2,85.9 "/>
<polyline class="st0" points="463.1,96.1 461.2,86.7 462.7,86.4 464.6,95.8 "/>
<polygon class="st0" points="271.8,55.9 272.3,63.2 278,59.8 "/>
<polyline class="st0" points="279.5,70.1 274.5,61.9 275.8,61.1 280.8,69.4 "/>
<polygon class="st0" points="298.1,55.8 298.6,63.1 304.3,59.8 "/>
<polyline class="st0" points="305.7,70.1 300.8,61.8 302.1,61.1 307,69.4 "/>
<polygon class="st0" points="324.9,55.5 325.1,62.8 330.9,59.7 "/>
<polyline class="st0" points="331.9,70.1 327.4,61.6 328.7,60.9 333.3,69.4 "/>
<polygon class="st0" points="351.9,55.1 351.8,62.4 357.7,59.6 "/>
<polyline class="st0" points="358.2,70.1 354,61.4 355.4,60.7 359.5,69.4 "/>
<polygon class="st0" points="379,54.8 378.4,62.1 384.5,59.6 "/>
<polyline class="st0" points="384.4,70 380.7,61.1 382.1,60.5 385.8,69.5 "/>
<polygon class="st0" points="405.9,54.5 405,61.8 411.2,59.6 "/>
<polyline class="st0" points="410.6,70 407.4,60.9 408.8,60.4 412,69.5 "/>
<polygon class="st0" points="432.7,54.3 431.6,61.5 437.8,59.6 "/>
<polyline class="st0" points="436.9,70 434,60.8 435.4,60.3 438.3,69.5 "/>
<polygon class="st0" points="459.4,54.2 458,61.4 464.3,59.6 "/>
<polyline class="st0" points="463.1,70 460.5,60.7 461.9,60.3 464.5,69.5 "/>
<polygon class="st0" points="271.8,29.6 272.4,36.9 278,33.5 "/>
<polyline class="st0" points="279.5,43.9 274.5,35.6 275.8,34.8 280.8,43.1 "/>
<polygon class="st0" points="298.2,29.5 298.7,36.9 304.3,33.5 "/>
<polyline class="st0" points="305.7,43.9 300.8,35.6 302.1,34.8 307,43.1 "/>
<polygon class="st0" points="324.8,29.3 325.1,36.6 330.9,33.5 "/>
<polyline class="st0" points="331.9,43.9 327.3,35.4 328.6,34.7 333.3,43.2 "/>
<polygon class="st0" points="351.7,29 351.7,36.3 357.5,33.4 "/>
<polyline class="st0" points="358.2,43.8 353.9,35.2 355.3,34.5 359.5,43.2 "/>
<polygon class="st0" points="378.6,28.6 378.2,36 384.3,33.4 "/>
<polyline class="st0" points="384.4,43.8 380.6,35 381.9,34.4 385.8,43.2 "/>
<polygon class="st0" points="405.5,28.4 404.8,35.7 410.9,33.3 "/>
<polyline class="st0" points="410.6,43.8 407.2,34.8 408.6,34.2 412,43.2 "/>
<polygon class="st0" points="432.3,28.2 431.3,35.5 437.5,33.3 "/>
<polyline class="st0" points="436.9,43.8 433.7,34.6 435.1,34.1 438.3,43.3 "/>
<polygon class="st0" points="458.9,28.1 457.8,35.3 464,33.3 "/>
<polyline class="st0" points="463.1,43.7 460.2,34.5 461.6,34.1 464.5,43.3 "/>
<polygon class="st0" points="272.6,2.9 272.7,10.3 278.5,7.2 "/>
<polyline class="st0" points="279.5,17.6 275,9.1 276.3,8.4 280.8,16.9 "/>
<polygon class="st0" points="298.9,2.9 299,10.2 304.8,7.2 "/>
<polyline class="st0" points="305.7,17.6 301.3,9.1 302.6,8.4 307,16.9 "/>
<polygon class="st0" points="325.5,2.7 325.4,10 331.3,7.2 "/>
<polyline class="st0" points="331.9,17.6 327.7,8.9 329.1,8.3 333.3,16.9 "/>
<polygon class="st0" points="352.3,2.5 351.9,9.8 357.9,7.1 "/>
<polyline class="st0" points="358.2,17.6 354.2,8.8 355.6,8.2 359.5,17 "/>
<polygon class="st0" points="379.1,2.2 378.5,9.5 384.6,7.1 "/>
<polyline class="st0" points="384.4,17.6 380.8,8.6 382.2,8 385.8,17 "/>
<polygon class="st0" points="405.8,2 405,9.3 411.2,7.1 "/>
<polyline class="st0" points="410.6,17.5 407.4,8.5 408.8,7.9 412,17 "/>
<polygon class="st0" points="432.5,1.9 431.5,9.1 437.7,7.1 "/>
<polyline class="st0" points="436.9,17.5 433.9,8.3 435.3,7.9 438.3,17 "/>
<polygon class="st0" points="459.1,1.8 457.9,9 464.2,7.1 "/>
<polyline class="st0" points="463.1,17.5 460.3,8.3 461.8,7.8 464.5,17.1 "/>
<path class="st1" d="M137.3,190.7c31.1-24.5,73.8,10.4,110.8-18.3c30.2-23.5,18.7-60.3,44.3-71c27.1-11.3,70.4,17.1,90.9,50.4
	c36.6,59.5,10.8,152.2-31.3,167.3c-36.6,13.1-62.7-40.5-119.2-32.1c-51,7.6-65.6,56.6-89.4,48.9C111.2,325.3,97.2,222.3,137.3,190.7
	z"/>
<path class="st2" d="M137.3,190.7c31.1-24.5,73.8,10.4,110.8-18.3c30.2-23.5,18.7-60.3,44.3-71c27.1-11.3,70.4,17.1,90.9,50.4
	c36.6,59.5,10.8,152.2-31.3,167.3c-36.6,13.1-62.7-40.5-119.2-32.1c-51,7.6-65.6,56.6-89.4,48.9C111.2,325.3,97.2,222.3,137.3,190.7
	z"/>
<path class="st3" d="M113.7,302.9c0-0.5-0.4-0.5-0.5-0.5c-0.1,0-0.3,0-0.7,0.5l-3.5,4.3c-1.8-3.1-4.6-4.8-8.5-4.8
	c-11.1,0-22.6,11.3-22.6,23.3c0,8.6,6,13.9,13.5,13.9c4.1,0,7.7-1.7,10.7-4.3c4.5-3.8,5.8-8.7,5.8-9.2c0-0.5-0.4-0.5-0.6-0.5
	c-0.5,0-0.5,0.3-0.6,0.5c-2.4,8-9.3,11.9-14.4,11.9c-5.5,0-10.2-3.5-10.2-10.8c0-1.6,0.5-10.6,6.3-17.3c2.8-3.3,7.7-6.2,12.5-6.2
	c5.7,0,8.2,4.7,8.2,9.9c0,1.3-0.2,2.5-0.2,2.7c0,0.5,0.5,0.5,0.7,0.5c0.6,0,0.6-0.1,0.8-1L113.7,302.9z"/>
<g>
	<path class="st4" d="M216.5,46.3c0,0.8,0,0.9-0.6,1.9c-1.1,1.6-2.9,2.9-5.1,2.9c-1.2,0-6-0.4-6-9.1c0-3.2,0.5-5,1.5-6.5
		c0.9-1.4,2.7-2.8,4.9-2.8c2.8,0,4.3,2,4.8,2.7c0.5,0.8,0.5,0.8,0.5,1.7V46.3z M213.2,20.9v1.3c3,0,3.4,0.3,3.4,2.5v9.9
		c-0.9-1.3-2.9-2.9-5.6-2.9c-5.2,0-9.7,4.4-9.7,10.1c0,5.7,4.2,10.1,9.2,10.1c3.4,0,5.4-2.2,6-3.1v3.1l6.3-0.4v-1.3
		c-3,0-3.4-0.3-3.4-2.5V20.4L213.2,20.9z M195.3,20.4l-6.2,0.5v1.3c3,0,3.4,0.3,3.4,2.5v23.4c0,2-0.5,2-3.4,2v1.3
		c1.3-0.1,3.4-0.1,4.8-0.1c1.3,0,3.6,0,4.8,0.1v-1.3c-2.9,0-3.4,0-3.4-2V20.4z M172.9,40.3c0.4-7,4.3-7.8,5.5-7.8
		c4.8,0,5.1,6.3,5.1,7.8H172.9z M185.2,41.1c1,0,1.1,0,1.1-0.8c0-4.5-2.4-8.7-7.8-8.7c-5.1,0-9,4.6-9,10.2c0,5.9,4.6,10.2,9.5,10.2
		c5.3,0,7.3-4.8,7.3-5.8l-0.5-0.4c-0.4,0-0.4,0.2-0.5,0.4c-1.2,3.8-4.2,4.8-6,4.8c-1.9,0-6.4-1.3-6.4-9v-0.8H185.2z M158,32.1
		l-0.8,0.1c-0.1,0-0.2,0-0.8,0h-5.2v-5.1c0-4.6,3.9-6.3,6.5-6.3c0.4,0,2.6,0,3.9,1.6c-1.9,0-2,1.4-2,1.9c0,1.3,1.1,1.9,1.8,1.9
		c0.8,0,1.9-0.5,1.9-1.9c0-2.3-2.1-4.3-5.5-4.3c-4.1,0-9.3,2.2-9.3,7.1v5.1h-3.5v1.3h3.5v14.7c0,2-0.5,2-3.4,2v1.3
		c1.3-0.1,3.4-0.1,4.8-0.1c1.3,0,3.6,0,4.8,0.1v-1.3c-2.9,0-3.4,0-3.4-2V33.5h7c2.1,0,2.3,0.6,2.3,2.4v12.3c0,2-0.5,2-3.4,2v1.3
		c1.3-0.1,3.4-0.1,4.8-0.1c1.3,0,3.6,0,4.8,0.1v-1.3c-2.9,0-3.4,0-3.4-2V31.7L158,32.1z M119.5,41.1c0-4.3,1.8-8.4,5.2-8.4
		c0.4,0,0.4,0,0.6,0c-0.4,0.2-1.1,0.4-1.1,1.7c0,1.3,1,1.8,1.7,1.8c0.9,0,1.8-0.6,1.8-1.8c0-1.3-1.2-2.6-3.1-2.6
		c-3.8,0-5.1,4.1-5.4,5h0v-5l-6,0.5v1.3c3,0,3.4,0.3,3.4,2.5v12.1c0,2-0.5,2-3.4,2v1.3c1.3-0.1,3.7-0.1,5.1-0.1c1.2,0,4.4,0,5.4,0.1
		v-1.3h-0.9c-3.3,0-3.4-0.5-3.4-2.1V41.1z M101.1,51c-1.7,0-3.7-0.7-5-2.9c-1.2-2-1.3-4.7-1.3-6.5c0-1.7,0-4.4,1.4-6.4
		c1.3-1.9,3.2-2.6,4.8-2.6c1.7,0,3.6,0.8,4.8,2.5c1.4,2.1,1.4,4.9,1.4,6.5c0,1.6,0,4.3-1.2,6.4C104.9,50.1,102.8,51,101.1,51z
		 M110.7,41.9c0-5.8-4.4-10.4-9.6-10.4c-5.4,0-9.6,4.7-9.6,10.4c0,5.7,4.5,10,9.6,10C106.4,51.9,110.7,47.6,110.7,41.9z M80.6,33.5
		h6.3v-1.3h-6.3V24h-1c0,4.2-1.7,8.5-5.7,8.6v0.9h3.8v12.4c0,5,3.3,6,5.7,6c2.8,0,4.3-2.8,4.3-6v-2.5h-1v2.5c0,3.2-1.3,5.1-3,5.1
		c-3,0-3-4.2-3-4.9V33.5z M69.8,34.9c-0.5,0-2.2,0-2.2,1.8c0,1.1,0.8,1.8,1.8,1.8c1,0,1.9-0.6,1.9-1.9c0-3-3.1-5.1-6.8-5.1
		c-5.2,0-9.4,4.7-9.4,10.3c0,5.7,4.3,10.1,9.3,10.1c5.9,0,7.2-5.4,7.2-5.8c0-0.4-0.3-0.4-0.4-0.4c-0.4,0-0.4,0.1-0.6,0.7
		c-1,3.2-3.4,4.5-5.8,4.5c-2.7,0-6.4-2.4-6.4-9.2c0-7.4,3.8-9.3,6-9.3C66.3,32.5,68.8,33.2,69.8,34.9z M38.9,40.3
		c0.4-7,4.3-7.8,5.5-7.8c4.8,0,5.1,6.3,5.1,7.8H38.9z M51.3,41.1c1,0,1.1,0,1.1-0.8c0-4.5-2.4-8.7-7.8-8.7c-5.1,0-9,4.6-9,10.2
		c0,5.9,4.6,10.2,9.5,10.2c5.3,0,7.3-4.8,7.3-5.8l-0.5-0.4c-0.4,0-0.4,0.2-0.5,0.4c-1.2,3.8-4.2,4.8-6,4.8c-1.9,0-6.4-1.3-6.4-9
		v-0.8H51.3z M32.3,25.4c0.4-1.1,1.2-3.1,4.7-3.1v-1.3C34.7,21,34.6,21,32.8,21c-1.2,0-3.4,0-4.6-0.1v1.3c2.3,0,3,1.3,3,2.2
		c0,0.3,0,0.4-0.3,1l-8.4,22.1l-8.8-23.3c-0.2-0.5-0.2-0.6-0.2-0.7c0-1.3,2.2-1.3,3.4-1.3v-1.3C15.9,21,12.5,21,11.2,21
		c-1.3,0-4.3,0-5.4-0.1v1.3c2.8,0,3.5,0,4.2,1.8l10.5,27.6c0.2,0.6,0.3,0.8,0.9,0.8c0.6,0,0.7-0.1,1-0.9L32.3,25.4z"/>
	<path class="st4" d="M266.9,21h-26.5V23h4.7v26.6h-4.7v1.9c1.3-0.1,6.4-0.1,8.1-0.1c2.4,0,6.4,0,8.5,0.1v-1.9h-5.9V37.2h2.5
		c4.3,0,4.7,2,4.7,5.2h1.9V30.1h-1.9c0,3.3-0.4,5.2-4.7,5.2h-2.5V23h6.4c7.1,0,8.2,3.3,8.9,8.7h1.9L266.9,21z"/>
</g>
<path class="st3" d="M150.6,264.7c7.1-1.5,12.6-6.1,12.6-11c0-4.5-4.5-8.6-12.5-8.6h-15.5c-1.1,0-1.7,0-1.7,1.1
	c0,0.6,0.4,0.6,1.5,0.6c3.4,0,3.4,0.5,3.4,1.1c0,0.1,0,0.5-0.2,1.3l-7.7,30.7c-0.5,2-0.6,2.6-4.6,2.6c-1.3,0-1.7,0-1.7,1.1
	c0,0.6,0.6,0.6,0.8,0.6c1,0,2.2-0.1,3.3-0.1h6.7c1,0,2.2,0.1,3.3,0.1c0.5,0,1.1,0,1.1-1.1c0-0.6-0.5-0.6-1.4-0.6
	c-3.5,0-3.5-0.5-3.5-1c0-0.1,0-0.5,0.1-0.9l3.8-15.4h6.9c5.4,0,6.5,3.4,6.5,5.3c0,0.9-0.6,3.1-1,4.6c-0.6,2.6-0.8,3.3-0.8,4.3
	c0,4.1,3.3,5.9,7.1,5.9c4.6,0,6.6-5.7,6.6-6.5l-0.6-0.6c-0.5,0-0.6,0.3-0.7,0.8c-1.4,4.1-3.7,5.1-5.1,5.1s-2.3-0.6-2.3-3.2
	c0-1.4,0.7-6.6,0.7-6.9c0.3-2.1,0.3-2.3,0.3-2.8C156.1,267.2,152.8,265.4,150.6,264.7z M142.7,249c0.5-2.1,0.7-2.2,3-2.2h4.1
	c4.9,0,8.6,1.5,8.6,5.9c0,2.9-1.5,11.3-13,11.3h-6.5L142.7,249z"/>
<polygon class="st3" points="400,196.4 392.2,216.2 411.2,214.5 "/>
<polygon class="st3" points="227.2,182.7 248.5,183.3 240.5,166 "/>
<polygon class="st3" points="113.4,277.7 122.5,258.4 103.4,258.8 "/>
<polygon class="st3" points="324.5,318.2 313.5,299.9 303.3,316.1 "/>
</svg>
